<svg width="114" height="31" viewBox="0 0 114 31" fill="none" xmlns="http://www.w3.org/2000/svg">
<path d="M59.147 30.32V15.5488H56.8821V30.32H59.147ZM56.8821 10.3395H59.064V12.7516H56.8896L56.8821 10.3395Z" fill="#F5AB40"/>
<path d="M62.0232 0H64.2013V20.8374H62.0232V0Z" fill="#00A7DC"/>
<path d="M51.7633 0H53.9376V20.8374H51.7633V0ZM11.5002 6.45507H13.6784V20.8374H11.5002V6.45507Z" fill="#F5AB40"/>
<path d="M72.3629 6.45508C68.32 6.45508 65.9116 9.72036 65.9116 13.918C65.9116 18.0365 68.4748 20.8374 72.6725 20.8374C74.2443 20.8748 75.8066 20.5829 77.259 19.9805L77.4175 19.9013V18.0365C75.9949 18.5547 74.499 18.844 72.9858 18.8934C70.4981 18.8934 68.32 17.4929 68.2445 14.1483H77.9611C77.9611 13.918 78.0366 13.5292 78.0366 12.9856C78.0366 10.4187 76.8701 6.45508 72.3742 6.45508H72.3629ZM75.6282 12.3024H68.32C68.554 10.5924 69.6412 8.25948 72.1289 8.25948C75.0053 8.25948 75.7037 10.7471 75.6282 12.3024ZM90.943 11.604C91.0185 8.80684 89.5425 6.47395 85.424 6.47395C83.6347 6.47395 82.0795 6.70422 80.9131 7.40635V9.27115C82.2061 8.66305 83.6076 8.31911 85.0352 8.25948C87.9872 8.41802 88.6101 10.2828 88.6101 11.4493V12.6799C82.4683 10.7924 79.6711 13.4349 79.7466 16.87C79.8259 18.8934 81.2264 20.8374 84.1028 20.8374C86.0431 20.8374 87.8324 20.3693 88.6893 19.3577V20.8374H90.9543V11.5852L90.943 11.604ZM88.6893 16.87C87.7532 17.961 86.666 19.0481 84.8012 19.0481C83.48 19.0481 82.1588 18.1912 82.1588 16.5605C82.1588 13.8388 85.6543 13.7633 88.6893 14.6164V16.87Z" fill="#00A7DC"/>
<path d="M49.7398 10.8869C48.9622 7.93112 46.9426 6.53063 44.0775 6.45513H43.2092C43.1005 6.44427 42.9912 6.47091 42.8997 6.53063C41.7612 6.73836 40.7101 7.27968 39.8798 8.08589V6.45513H37.7017V27.3643H39.8798V19.3577C40.8165 20.1799 41.9822 20.6962 43.2206 20.8375H44.4663C46.7312 20.6034 48.3544 19.5918 49.2868 17.5722C50.2504 15.4746 50.4155 13.0975 49.7511 10.8869H49.7398ZM47.807 14.0729V14.3824C47.7315 14.926 47.5768 15.4734 47.4975 15.8622C47.3427 16.2397 46.6406 17.961 44.9306 18.4253C44.603 18.5215 44.264 18.5735 43.9227 18.5801C43.9227 18.5801 41.1217 18.5801 39.8798 16.3152V10.7925C40.1903 10.1807 40.6406 9.65073 41.1941 9.24542C41.7476 8.84012 42.3888 8.57091 43.0658 8.4596C43.8223 8.33015 44.5988 8.3832 45.3307 8.61437H45.41L45.5648 8.69365L45.7195 8.77292L45.8781 8.84842C46.5764 9.31651 47.8184 10.5584 47.8976 13.1254C47.8976 13.5029 47.8184 13.7482 47.8184 14.0578" fill="#F5AB40"/>
<path d="M94.9252 8.14997V6.43994H92.5923V20.8223H94.9252V12.8271C94.9252 11.2756 95.2347 10.498 95.3027 10.4187L95.7707 9.72033C96.1756 9.32702 96.649 9.01102 97.1675 8.78793C97.4015 8.70865 97.6355 8.62938 97.9451 8.55388H98.3226C98.6359 8.47461 98.9454 8.47461 99.3342 8.39911H100.421V6.45504C97.0051 6.30027 95.3027 7.85175 94.9252 8.14997Z" fill="#00A7DC"/>
<path d="M9.78248 16.0169C9.6277 14.3824 8.61603 13.45 7.06078 12.997C6.66328 12.8553 6.25398 12.7492 5.83771 12.6799C4.99639 12.4926 4.16593 12.2595 3.35006 11.9816C1.87407 11.3587 2.18362 9.56942 3.04052 8.96166C3.60831 8.56039 4.28555 8.34299 4.98081 8.3388H6.30203C6.7494 8.38008 7.19257 8.45836 7.62701 8.57285C8.15567 8.71938 8.67398 8.90097 9.17849 9.11643V7.25163C9.01995 7.21055 8.86474 7.15755 8.71418 7.09309C7.18164 6.58097 5.55442 6.41593 3.95027 6.6099C1.85142 6.91944 -0.0171479 8.3992 0.216896 11.1171C0.22781 11.6228 0.389618 12.1136 0.681543 12.5266C0.973468 12.9396 1.38218 13.2559 1.8552 13.4349C2.65552 13.7685 3.48266 14.0337 4.32775 14.2276C5.02611 14.4617 5.80374 14.6957 6.50209 14.926C6.72369 15.0003 6.92071 15.1339 7.07177 15.3122C7.22283 15.4906 7.32217 15.7069 7.35899 15.9377C7.66854 17.0248 7.27972 17.961 6.11328 18.5046C5.10538 18.9689 4.01444 18.9689 2.92727 18.8821C0.983199 18.7235 0.205571 18.1045 0.205571 18.1045V19.89C0.205571 19.89 0.749156 20.124 1.45129 20.3581L2.38368 20.5921C3.49347 20.7594 4.62386 20.7325 5.72446 20.5128C6.42455 20.3623 7.10391 20.1278 7.74781 19.8145C9.22379 19.1916 10.0127 17.7156 9.76738 16.0056L9.78248 16.0169ZM11.5001 2.11023H13.6782V4.52239H11.5001V2.11023Z" fill="#F5AB40"/>
<path d="M113.487 10.264C113.272 9.34391 112.8 8.50403 112.126 7.84278C111.451 7.18153 110.602 6.72634 109.678 6.53058H109.444C108.346 6.37253 107.226 6.47996 106.178 6.84389L106.024 6.91939C105.411 7.1634 104.874 7.56598 104.468 8.08583V6.45508H102.135V20.7582H104.468V11.974C104.481 11.0572 104.857 10.1828 105.512 9.54193C106.168 8.90107 107.051 8.54585 107.968 8.55392H108.043C108.043 8.55392 109.753 8.39915 110.765 9.72036L110.844 9.79586L110.999 10.0299C111.078 10.1847 111.154 10.2639 111.233 10.4074C111.233 10.4867 111.308 10.5622 111.308 10.7169C111.49 11.56 111.568 12.4219 111.543 13.2839V20.7582H113.875V12.208C113.721 11.4304 113.641 10.8075 113.498 10.264" fill="#00A7DC"/>
<path d="M30.3745 6.45508C27.5773 6.53058 26.3354 7.85179 25.9465 8.39915L25.788 8.62942V8.47465L25.7125 8.39915L25.6332 8.24061C25.1989 7.63002 24.6082 7.14757 23.9232 6.84389C23.2245 6.59793 22.4896 6.47035 21.7489 6.4664H21.6922C20.8631 6.41565 20.0347 6.57537 19.2839 6.93072C18.6276 7.17488 18.0406 7.57523 17.5738 8.09716V6.4664H15.3806V20.7582H17.5587V12.1287C17.549 11.7342 17.6013 11.3406 17.7135 10.9623C17.9054 10.2025 18.3467 9.52912 18.9668 9.05C19.5869 8.57088 20.3499 8.31378 21.1336 8.31988C21.8085 8.29484 22.4752 8.47427 23.0464 8.83464C23.6176 9.19501 24.0666 9.71952 24.3347 10.3394C24.4936 10.7616 24.5729 11.2096 24.5687 11.6607V20.6789H26.7468V11.8192C26.7376 11.3575 26.8217 10.8986 26.994 10.4701C27.1664 10.0416 27.4235 9.65235 27.7499 9.3256C28.0763 8.99885 28.4653 8.74136 28.8935 8.56854C29.3218 8.39573 29.7806 8.31115 30.2424 8.31988C30.9389 8.32329 31.6176 8.54073 32.1864 8.94274C32.664 9.23628 33.0579 9.64781 33.3303 10.1377C33.6027 10.6276 33.7444 11.1794 33.7417 11.7399V20.6789H36.0066V12.0495C36.0287 11.055 35.8153 10.0693 35.3838 9.17301C33.9871 6.68535 31.4201 6.45508 30.4085 6.45508" fill="#F5AB40"/>
</svg>
